REM DIRINDEX 1\2,1\3,1\4,1\5
REM DIRNAME folder01,folder02,folder03,folder04,folder05
TITLE ""
FILE "1Q_t_1689-1698.mp3" MP3
  TRACK 01 AUDIO
    TITLE "3:cjc004_5974"
    INDEX 01 00:00:00
  TRACK 02 AUDIO
    TITLE "0:"
    INDEX 01 00:01:03
  TRACK 03 AUDIO
    TITLE "4:cjc004_5975"
    INDEX 01 00:01:28
  TRACK 04 AUDIO
    TITLE "0:"
    INDEX 01 00:02:49
  TRACK 05 AUDIO
    TITLE "5:cjc004_5976"
    INDEX 01 00:02:71
  TRACK 06 AUDIO
    TITLE "0:"
    INDEX 01 00:07:49
  TRACK 07 AUDIO
    TITLE "3:cjc004_5977"
    INDEX 01 00:08:30
  TRACK 08 AUDIO
    TITLE "0:"
    INDEX 01 00:09:45
  TRACK 09 AUDIO
    TITLE "4:cjc004_5978"
    INDEX 01 00:10:00
  TRACK 10 AUDIO
    TITLE "0:"
    INDEX 01 00:11:01
  TRACK 11 AUDIO
    TITLE "5:cjc004_5979"
    INDEX 01 00:11:23
  TRACK 12 AUDIO
    TITLE "0:"
    INDEX 01 00:15:07
  TRACK 13 AUDIO
    TITLE "3:cjc004_5980"
    INDEX 01 00:15:66
  TRACK 14 AUDIO
    TITLE "0:"
    INDEX 01 00:17:00
  TRACK 15 AUDIO
    TITLE "4:cjc004_5981"
    INDEX 01 00:17:25
  TRACK 16 AUDIO
    TITLE "0:"
    INDEX 01 00:18:31
  TRACK 17 AUDIO
    TITLE "5:cjc004_5982"
    INDEX 01 00:18:60
  TRACK 18 AUDIO
    TITLE "0:"
    INDEX 01 00:22:52
  TRACK 19 AUDIO
    TITLE "3:cjc004_5983"
    INDEX 01 00:23:24
  TRACK 20 AUDIO
    TITLE "0:"
    INDEX 01 00:24:47
  TRACK 21 AUDIO
    TITLE "4:cjc004_5984"
    INDEX 01 00:25:01
  TRACK 22 AUDIO
    TITLE "0:"
    INDEX 01 00:26:32
  TRACK 23 AUDIO
    TITLE "5:cjc004_5985"
    INDEX 01 00:26:62
  TRACK 24 AUDIO
    TITLE "0:"
    INDEX 01 00:30:54
  TRACK 25 AUDIO
    TITLE "3:cjc004_5986"
    INDEX 01 00:31:27
  TRACK 26 AUDIO
    TITLE "0:"
    INDEX 01 00:32:62
  TRACK 27 AUDIO
    TITLE "4:cjc004_5987"
    INDEX 01 00:33:17
  TRACK 28 AUDIO
    TITLE "0:"
    INDEX 01 00:34:28
  TRACK 29 AUDIO
    TITLE "5:cjc004_5988"
    INDEX 01 00:34:57
  TRACK 30 AUDIO
    TITLE "0:"
    INDEX 01 00:39:21
  TRACK 31 AUDIO
    TITLE "3:cjc004_5989"
    INDEX 01 00:39:72
  TRACK 32 AUDIO
    TITLE "0:"
    INDEX 01 00:41:02
  TRACK 33 AUDIO
    TITLE "4:cjc004_5990"
    INDEX 01 00:41:30
  TRACK 34 AUDIO
    TITLE "0:"
    INDEX 01 00:42:33
  TRACK 35 AUDIO
    TITLE "5:cjc004_5991"
    INDEX 01 00:42:59
  TRACK 36 AUDIO
    TITLE "0:"
    INDEX 01 00:47:05
  TRACK 37 AUDIO
    TITLE "3:cjc004_5992"
    INDEX 01 00:47:58
  TRACK 38 AUDIO
    TITLE "0:"
    INDEX 01 00:48:65
  TRACK 39 AUDIO
    TITLE "4:cjc004_5993"
    INDEX 01 00:49:18
  TRACK 40 AUDIO
    TITLE "0:"
    INDEX 01 00:50:17
  TRACK 41 AUDIO
    TITLE "5:cjc004_5994"
    INDEX 01 00:50:41
  TRACK 42 AUDIO
    TITLE "0:"
    INDEX 01 00:55:46
  TRACK 43 AUDIO
    TITLE "3:cjc004_5995"
    INDEX 01 00:56:24
  TRACK 44 AUDIO
    TITLE "0:"
    INDEX 01 00:57:37
  TRACK 45 AUDIO
    TITLE "4:cjc004_5996"
    INDEX 01 00:57:66
  TRACK 46 AUDIO
    TITLE "0:"
    INDEX 01 00:59:14
  TRACK 47 AUDIO
    TITLE "5:cjc004_5997"
    INDEX 01 00:59:36
  TRACK 48 AUDIO
    TITLE "0:"
    INDEX 01 01:03:41
  TRACK 49 AUDIO
    TITLE "3:cjc004_5998"
    INDEX 01 01:04:17
  TRACK 50 AUDIO
    TITLE "0:"
    INDEX 01 01:05:38
  TRACK 51 AUDIO
    TITLE "4:cjc004_5999"
    INDEX 01 01:05:62
  TRACK 52 AUDIO
    TITLE "0:"
    INDEX 01 01:07:00
  TRACK 53 AUDIO
    TITLE "5:cjc004_6000"
    INDEX 01 01:07:29
  TRACK 54 AUDIO
    TITLE "0:"
    INDEX 01 01:11:27
  TRACK 55 AUDIO
    TITLE "3:cjc004_6001"
    INDEX 01 01:12:03
  TRACK 56 AUDIO
    TITLE "0:"
    INDEX 01 01:13:14
  TRACK 57 AUDIO
    TITLE "4:cjc004_6002"
    INDEX 01 01:13:40
  TRACK 58 AUDIO
    TITLE "0:"
    INDEX 01 01:14:53
  TRACK 59 AUDIO
    TITLE "5:cjc004_6003"
    INDEX 01 01:15:03
  TRACK 60 AUDIO
    TITLE "0:"
    INDEX 01 01:21:14
